<?xml version="1.0" encoding="UTF-8" standalone="no"?><svg xmlns="http://www.w3.org/2000/svg" xmlns:xlink="http://www.w3.org/1999/xlink" fill="#69ccfe" height="300" preserveAspectRatio="xMidYMid meet" version="1" viewBox="0.0 0.0 300.0 300.0" width="300" zoomAndPan="magnify"><g id="change1_1"><path d="M150,0C67.167,0,0,67.167,0,150c0,82.833,67.167,150,150,150c54.5,0,102.2-29.067,128.433-72.533 C292.133,204.867,300,178.333,300,150c0-35.2-12.133-67.6-32.5-93.2C240.067,22.2,197.6,0,150,0z M88.542,177.5c0,2.76-2.24,5-5,5 H58.125c-2.76,0-5-2.24-5-5v-55c0-2.76,2.24-5,5-5h25.417c2.76,0,5,2.24,5,5V177.5z M163.675,212.233 c0,1.816-0.983,3.486-2.568,4.368c-0.758,0.423-1.595,0.632-2.432,0.632c-0.915,0-1.829-0.251-2.637-0.752l-55.967-34.733 c-1.468-0.911-2.363-2.52-2.363-4.248v-55c0-1.729,0.895-3.337,2.363-4.248l55.967-34.733c1.546-0.957,3.483-1.006,5.068-0.12 c1.585,0.882,2.568,2.552,2.568,4.368V212.233z M183.343,174.668c-0.977,0.977-2.256,1.465-3.535,1.465s-2.559-0.488-3.535-1.465 c-1.953-1.953-1.953-5.117,0-7.07c4.688-4.688,7.269-10.938,7.269-17.598s-2.581-12.91-7.269-17.598 c-1.953-1.953-1.953-5.117,0-7.07c1.953-1.953,5.117-1.953,7.07,0c6.576,6.576,10.199,15.335,10.199,24.668 C193.542,159.333,189.919,168.092,183.343,174.668z M198.643,194.967c-1.279,0-2.559-0.488-3.535-1.465 c-1.953-1.95-1.953-5.117,0-7.07c9.736-9.743,15.101-22.679,15.101-36.432c0-13.753-5.365-26.689-15.101-36.432 c-1.953-1.953-1.953-5.12,0-7.07c1.953-1.953,5.117-1.953,7.07,0c11.628,11.631,18.031,27.08,18.031,43.503 s-6.403,31.872-18.031,43.503C201.201,194.479,199.922,194.967,198.643,194.967z M221.009,212.334 c-0.977,0.977-2.256,1.465-3.535,1.465s-2.559-0.488-3.535-1.465c-1.953-1.953-1.953-5.117,0-7.07 c14.792-14.788,22.936-34.414,22.936-55.264s-8.145-40.475-22.936-55.264c-1.953-1.953-1.953-5.117,0-7.07s5.117-1.953,7.07,0 c16.68,16.676,25.866,38.812,25.866,62.334S237.689,195.658,221.009,212.334z" fill="inherit"/></g></svg>