<?xml version="1.0" encoding="UTF-8" standalone="no"?><svg xmlns="http://www.w3.org/2000/svg" xmlns:xlink="http://www.w3.org/1999/xlink" fill="#000000" height="465.6" preserveAspectRatio="xMidYMid meet" version="1" viewBox="256.6 226.6 486.8 465.6" width="486.8" zoomAndPan="magnify"><g><g id="change1_1"><path d="M 456.488281 399.921875 C 501.738281 391.574219 539.226562 371.207031 568.378906 339.207031 C 575.023438 304.742188 576.347656 266.714844 567.984375 226.644531 C 567.984375 226.644531 548.691406 340.253906 441.214844 384.265625 C 446.074219 389.148438 451.140625 394.363281 456.488281 399.921875" fill="#545454"/></g><g id="change2_1"><path d="M 576.753906 476.214844 C 608.992188 425.539062 649.515625 337.453125 628.414062 236.367188 C 628.414062 236.367188 603.664062 382.132812 454.046875 407.40625 C 432.160156 384.613281 415.503906 367.785156 399.734375 357.027344 C 403.992188 351.339844 407.789062 342.421875 406.03125 329.425781 C 406.03125 329.425781 399.578125 347.402344 376.113281 345.429688 C 370.550781 343.816406 364.832031 342.953125 358.773438 342.839844 C 318.980469 342.09375 301.0625 386.878906 301.0625 386.878906 C 271.886719 385.488281 256.605469 404.9375 256.605469 404.9375 C 314.707031 403.75 349.914062 450.910156 376.476562 493.628906 C 500 692.277344 743.394531 457.140625 743.394531 457.140625 C 673.449219 478.6875 619.074219 482.421875 576.753906 476.214844" fill="#000000"/></g></g></svg>